<?xml version="1.0" standalone="no"?>
<!DOCTYPE svg PUBLIC "-//W3C//DTD SVG 20010904//EN"
 "http://www.w3.org/TR/2001/REC-SVG-20010904/DTD/svg10.dtd">
<svg version="1.0" xmlns="http://www.w3.org/2000/svg"
 width="512.000000pt" height="512.000000pt" viewBox="0 0 512.000000 512.000000"
 preserveAspectRatio="xMidYMid meet">
<metadata>
Created by potrace 1.14, written by Peter Selinger 2001-2017
</metadata>
<g transform="translate(0.000000,512.000000) scale(0.100000,-0.100000)"
fill="#000000" stroke="none">
<path d="M1835 4854 c-128 -27 -215 -83 -365 -233 l-85 -86 -350 -1 c-385 -2
-402 -4 -496 -65 -55 -35 -125 -116 -135 -155 -4 -16 -15 -26 -33 -30 -110
-22 -160 -46 -233 -113 -60 -55 -103 -126 -124 -205 -21 -80 -20 -3303 1
-3394 13 -56 66 -155 98 -186 46 -44 111 -87 162 -107 l60 -24 2205 -2 c1843
-2 2213 -1 2256 11 158 42 280 168 313 324 8 38 11 590 11 1979 0 1783 -1
1931 -17 1987 -9 34 -27 78 -39 100 -55 96 -173 182 -282 205 -37 8 -467 11
-1465 10 -1204 -1 -1422 -3 -1482 -15z"/>
</g>
</svg>
